<svg width="256" height="256" viewBox="0 0 256 256" fill="none" xmlns="http://www.w3.org/2000/svg">
<rect x="235.763" y="24.0474" width="20.2372" height="208.443" fill="black"/>
<path d="M199.215 128.269C199.215 78.0409 158.497 37.3227 108.269 37.3227C58.0409 37.3227 17.3227 78.0409 17.3227 128.269C17.3227 178.497 58.0409 219.215 108.269 219.215V236.538L106.87 236.528C48.185 235.785 0.751461 188.352 0.00827084 129.668L0 128.269C0 68.4737 48.4737 20 108.269 20L109.668 20.0083C168.818 20.7574 216.538 68.9407 216.538 128.269L216.528 129.668C215.779 188.818 167.597 236.537 108.269 236.538V219.215C158.497 219.215 199.215 178.497 199.215 128.269Z" fill="black"/>
</svg>
